<svg xmlns="http://www.w3.org/2000/svg"  viewBox="0 0 80 80" width="80px" height="80px"><path d="M 38.726562 5 C 33.88554 5 29.535633 7.649372 26.378906 10.224609 C 23.222179 12.799848 21.210937 15.384766 21.210938 15.384766 L 20.308594 16.542969 L 21.716797 16.958984 C 21.716797 16.958984 22.266975 17.109198 22.919922 17.779297 C 23.572869 18.449395 24.273437 19.588075 24.273438 21.751953 C 24.273438 24.552371 24.701586 26.811975 24.916016 27.769531 C 24.359211 28.278599 24 28.995079 24 29.800781 C 24 30.450638 24.193614 31.00244 24.353516 31.546875 C 24.433466 31.819092 24.510374 32.073356 24.5625 32.265625 C 24.61463 32.457894 24.625 32.643858 24.625 32.5 C 24.625 33.860791 25.765491 34.921144 27.107422 34.96875 C 27.220878 37.345977 27.957535 39.934219 29.126953 42 L 16 42 L 16 58.507812 C 15.640164 58.733922 14.918146 59.153225 13.830078 60.132812 C 12.497901 61.332172 11 62.947406 11 65.003906 L 11 67.728516 C 11 70.418898 12.842029 72.772563 15.453125 73.419922 L 15.492188 73.429688 L 17.328125 73.736328 C 18.610251 73.949767 19.857009 73.202141 20.304688 72 L 35.699219 72 C 35.871062 72.270939 35.881093 72.409509 36.298828 72.763672 C 37.04807 73.398892 38.277778 74 40 74 C 41.722222 74 42.95193 73.398892 43.701172 72.763672 C 44.118907 72.409509 44.128938 72.270939 44.300781 72 L 59.695312 72 C 60.143073 73.201482 61.389043 73.949885 62.671875 73.736328 L 64.507812 73.429688 L 64.546875 73.419922 C 67.158314 72.773716 69 70.418898 69 67.728516 L 69 65.003906 C 69 62.94709 67.502114 61.332319 66.169922 60.132812 C 65.081842 59.153105 64.359843 58.73393 64 58.507812 L 64 42 L 50.873047 42 C 52.042465 39.934219 52.779122 37.345977 52.892578 34.96875 C 54.234907 34.921144 55.375 33.860791 55.375 32.5 C 55.375 32.643858 55.38537 32.45789 55.4375 32.265625 C 55.48963 32.073356 55.566533 31.819092 55.646484 31.546875 C 55.806386 31.00244 56 30.450638 56 29.800781 C 56 28.982223 55.628876 28.256349 55.056641 27.746094 C 55.240472 26.693073 56 22.177353 56 19 C 56 15.407364 54.65612 12.831503 52.841797 11.236328 C 51.214855 9.8059006 49.299035 9.2290122 47.603516 9.1074219 C 47.331339 8.6769697 46.848064 7.9966236 45.841797 7.2109375 C 44.404272 6.0885288 42.089138 5 38.726562 5 z M 38.726562 7 C 41.66599 7 43.487353 7.9114712 44.611328 8.7890625 C 45.735303 9.6666538 46.103516 10.441406 46.103516 10.441406 L 46.378906 11 L 47 11 C 48.332508 11 50.123557 11.509207 51.521484 12.738281 C 52.919411 13.967356 54 15.889636 54 19 C 54 21.790852 53.334261 25.861149 53.142578 27.001953 C 53.136589 27.001916 53.130997 27 53.125 27 C 53.040922 27 53.05559 27.020743 53 27.027344 L 53 24 C 53 20.57812 51.601408 18.275725 50.195312 16.914062 C 48.789218 15.5524 47.318359 15.052734 47.318359 15.052734 L 46.746094 14.859375 L 46.308594 15.277344 C 46.308594 15.277344 45.681316 15.894668 44.160156 16.589844 C 42.638997 17.285019 40.289961 18 37 18 C 35.200387 18 32.826634 18.636647 30.769531 20.074219 C 28.717851 21.508001 27.012899 23.852966 27.003906 27.029297 C 26.947286 27.022296 26.961862 27 26.875 27 C 26.851013 27 26.828558 27.007225 26.804688 27.007812 C 26.60088 26.041314 26.273436 24.158882 26.273438 21.751953 C 26.273438 19.131832 25.337568 17.394667 24.353516 16.384766 C 23.938597 15.958948 23.842511 16.029311 23.480469 15.818359 C 24.170718 15.004045 25.455427 13.561248 27.644531 11.775391 C 30.616804 9.350628 34.631585 7 38.726562 7 z M 46.998047 17.15625 C 47.240955 17.25027 47.873808 17.448146 48.804688 18.349609 C 49.898592 19.408947 51 21.10588 51 24 L 51 30.304688 L 52.505859 29.423828 C 52.763271 29.273148 53.000659 29.139973 53.167969 29.054688 C 53.189159 29.043888 53.194211 29.042323 53.212891 29.033203 C 53.672602 29.079607 54 29.399535 54 29.800781 C 54 29.875921 53.881114 30.462857 53.728516 30.982422 C 53.652216 31.242205 53.572875 31.502206 53.507812 31.742188 C 53.442751 31.982169 53.375 32.146642 53.375 32.5 C 53.375 32.764393 53.156381 33 52.8125 33 L 51 33 L 51 34.367188 C 51 36.817855 49.876891 40.104305 48.494141 42 L 43.199219 42 L 42.939453 42.605469 C 42.939453 42.605469 42.838461 42.871548 42.408203 43.236328 C 41.977945 43.601108 41.277778 44 40 44 C 38.722222 44 38.022055 43.601108 37.591797 43.236328 C 37.161539 42.871548 37.060547 42.605469 37.060547 42.605469 L 36.800781 42 L 31.505859 42 C 30.123109 40.104305 29 36.817856 29 34.367188 L 29 33 L 27.1875 33 C 26.845222 33 26.625 32.764393 26.625 32.5 C 26.625 32.146642 26.55725 31.982169 26.492188 31.742188 C 26.427128 31.502205 26.347783 31.242205 26.271484 30.982422 C 26.118886 30.462857 26 29.875925 26 29.800781 C 26 29.399535 26.3274 29.079612 26.787109 29.033203 C 26.805789 29.042303 26.810841 29.043886 26.832031 29.054688 C 26.999341 29.139978 27.236729 29.273148 27.494141 29.423828 L 29 30.304688 L 29 27.052734 C 29 24.556878 30.243166 22.882522 31.914062 21.714844 C 33.584959 20.547166 35.711613 20 37 20 C 40.581039 20 43.231096 19.214981 44.992188 18.410156 C 46.300865 17.812086 46.645356 17.446204 46.998047 17.15625 z M 34.5 29 A 1.5 1.5 0 0 0 33 30.5 A 1.5 1.5 0 0 0 34.5 32 A 1.5 1.5 0 0 0 36 30.5 A 1.5 1.5 0 0 0 34.5 29 z M 45.5 29 A 1.5 1.5 0 0 0 44 30.5 A 1.5 1.5 0 0 0 45.5 32 A 1.5 1.5 0 0 0 47 30.5 A 1.5 1.5 0 0 0 45.5 29 z M 18 44 L 35.699219 44 C 35.871062 44.270939 35.881093 44.409509 36.298828 44.763672 C 37.04807 45.398892 38.277778 46 40 46 C 41.722222 46 42.95193 45.398892 43.701172 44.763672 C 44.118907 44.409509 44.128938 44.270939 44.300781 44 L 62 44 L 62 62.333984 L 59.746094 63.273438 L 59.726562 63.283203 C 58.675157 63.77592 58 64.838261 58 66 L 58 66.140625 L 59.103516 70 L 43.199219 70 L 42.939453 70.605469 C 42.939453 70.605469 42.838461 70.871548 42.408203 71.236328 C 41.977945 71.601108 41.277778 72 40 72 C 38.722222 72 38.022055 71.601108 37.591797 71.236328 C 37.161539 70.871548 37.060547 70.605469 37.060547 70.605469 L 36.800781 70 L 20.896484 70 L 22 66.140625 L 22 66 C 22 64.838261 21.324842 63.775955 20.273438 63.283203 L 20.253906 63.273438 L 18 62.333984 L 18 44 z M 36 46 A 1 1 0 0 0 35 47 A 1 1 0 0 0 36 48 A 1 1 0 0 0 37 47 A 1 1 0 0 0 36 46 z M 44 46 A 1 1 0 0 0 43 47 A 1 1 0 0 0 44 48 A 1 1 0 0 0 45 47 A 1 1 0 0 0 44 46 z M 36 50 A 1 1 0 0 0 35 51 A 1 1 0 0 0 36 52 A 1 1 0 0 0 37 51 A 1 1 0 0 0 36 50 z M 44 50 A 1 1 0 0 0 43 51 A 1 1 0 0 0 44 52 A 1 1 0 0 0 45 51 A 1 1 0 0 0 44 50 z M 36 54 A 1 1 0 0 0 35 55 A 1 1 0 0 0 36 56 A 1 1 0 0 0 37 55 A 1 1 0 0 0 36 54 z M 44 54 A 1 1 0 0 0 43 55 A 1 1 0 0 0 44 56 A 1 1 0 0 0 45 55 A 1 1 0 0 0 44 54 z M 36 58 A 1 1 0 0 0 35 59 A 1 1 0 0 0 36 60 A 1 1 0 0 0 37 59 A 1 1 0 0 0 36 58 z M 44 58 A 1 1 0 0 0 43 59 A 1 1 0 0 0 44 60 A 1 1 0 0 0 45 59 A 1 1 0 0 0 44 58 z M 16 60.996094 L 16 63.666016 L 19.425781 65.095703 C 19.760149 65.253579 19.952779 65.590195 19.972656 65.957031 L 18.458984 71.255859 C 18.357305 71.612374 18.021987 71.822604 17.65625 71.761719 L 15.929688 71.474609 C 14.204658 71.043465 13 69.507644 13 67.728516 L 13 65.003906 C 13 64.057407 14.002099 62.670531 15.169922 61.619141 C 15.583312 61.246966 15.636829 61.266311 16 60.996094 z M 64 60.996094 C 64.363164 61.266323 64.416694 61.246929 64.830078 61.619141 C 65.997886 62.670635 67 64.056722 67 65.003906 L 67 67.728516 C 67 69.507642 65.796953 71.044341 64.072266 71.474609 L 62.34375 71.761719 C 61.978758 71.822479 61.642497 71.611257 61.541016 71.255859 L 60.027344 65.957031 C 60.047224 65.590195 60.239851 65.253579 60.574219 65.095703 L 60.576172 65.09375 L 64 63.666016 L 64 60.996094 z M 36 62 A 1 1 0 0 0 35 63 A 1 1 0 0 0 36 64 A 1 1 0 0 0 37 63 A 1 1 0 0 0 36 62 z M 44 62 A 1 1 0 0 0 43 63 A 1 1 0 0 0 44 64 A 1 1 0 0 0 45 63 A 1 1 0 0 0 44 62 z M 36 66 A 1 1 0 0 0 35 67 A 1 1 0 0 0 36 68 A 1 1 0 0 0 37 67 A 1 1 0 0 0 36 66 z M 44 66 A 1 1 0 0 0 43 67 A 1 1 0 0 0 44 68 A 1 1 0 0 0 45 67 A 1 1 0 0 0 44 66 z"/></svg>